<?xml version="1.0" encoding="utf-8"?>
<!-- Generator: Adobe Illustrator 23.0.3, SVG Export Plug-In . SVG Version: 6.00 Build 0)  -->
<svg version="1.1" id="Capa_1" xmlns="http://www.w3.org/2000/svg" xmlns:xlink="http://www.w3.org/1999/xlink" x="0px" y="0px"
	 viewBox="0 0 1200 1200" enable-background="new 0 0 1200 1200" xml:space="preserve">
<path fill="#3C1784" d="M1006.734,296.953c-5.356-13.13,8.202-21.796,23.802-30.238l1.27-0.688
	c17.825-9.687,33.849-22.732,47.009-38.183c-0.112,3.291-0.235,6.625-0.643,8.322c-1.894,7.906-4.777,15.672-8.564,23.082
	c-6.705,13.107-18.945,30.897-33.182,41.517c-6.356,4.74-14.352,6.719-20.372,5.046
	C1011.783,304.621,1008.646,301.642,1006.734,296.953z M331.064,476.627c14.411,7.204,46.953,12.344,62.591,14.813
	c0.419,0.066,0.826,0.17,1.238,0.258c9.907-25.923,21.445-46.435,36.007-63.977c-0.968-1.378-1.818-3.136-2.454-5.425l-2.046-5.82
	c-4.115-13.171-10.61-26.653-18.828-39.119c-13.683-20.753-30.958-37.279-48.644-46.537c-16.913-8.85-32.011-9.911-42.52-2.982
	c-13.979,9.215-18.03,32.057-10.573,59.611l1.608,5.932c9.662,22.851,14.497,49.388,14.852,80.873
	C325.308,474.447,328.281,475.237,331.064,476.627z M322.052,899.91c69.813-28.403,139.21-72.51,218.393-138.81
	c124.678-104.393,242.609-236,324.593-362.043c-0.713-0.203-1.427-0.443-2.145-0.772c-2.282-1.043-4.034-2.556-5.47-4.292
	c-83.646,129.02-194.491,253.001-320.92,358.864c-79.85,66.855-149.935,111.378-220.565,140.117
	c-62.753,25.53-128.563,38.778-189.143,38.778c-24.009,0-47.179-2.098-69.029-6.319c1.267,1.78,2.687,3.502,4.251,5.165
	C138.658,947.152,233.374,935.992,322.052,899.91z M1103.032,492.433c5.572-0.093,10.591-4.337,13.771-11.648
	c7.079-16.272,11.239-33.702,14.469-51.196c-4.849,7.649-10.701,14.672-17.417,20.823c-1.894,1.734-3.854,3.401-5.817,5.065
	c-4.001,3.395-7.78,6.604-10.957,10.367v-0.003c-5.774,6.844-7.535,14.035-4.833,19.729
	C1094.265,489.811,1098.615,492.492,1103.032,492.433z M824.603,393.049c-0.264,1.859-1.763,3.299-3.63,3.494
	c-1.875,0.184-3.627-0.907-4.273-2.672c-9.036-24.786-26.781-45.814-49.481-59.009c18.83,52.213,11.306,113.616-20.222,159.38
	c-0.971,1.411-2.71,2.072-4.38,1.648c-1.659-0.419-2.883-1.827-3.067-3.529c-3.041-28.04-15.139-55.528-33.638-76.967
	c1.392,27.173,2.23,55.002-1.808,82.424c-5.188,35.199-18.27,64.959-37.837,86.062c-1.184,1.278-3.041,1.662-4.63,0.976
	c-1.592-0.691-2.579-2.31-2.459-4.043c1.427-20.737-2.08-42.035-9.965-61.374c-3.387,29.552-16.323,56.232-28.899,82.165
	l-2.715,5.609c-13.891,28.781-24.066,59.121-30.355,90.338c103.745-94.852,194.772-201.515,265.741-311.771
	c-0.425-1.143-0.82-2.277-1.184-3.357c-0.733-2.179-1.427-4.238-2.272-5.918c-0.17-0.338-0.271-0.689-0.341-1.043
	c-3.382-7.048-8.916-13.206-16.166-17.936l-2.374-1.67c-4.127-3.295-8.133-6.675-12.052-10.117
	C824.375,361.104,826.734,378.178,824.603,393.049z M315.197,742.36c19.145-9.399,43.379-22.82,60.969-43.371
	c18.331-21.412,29.952-50.343,35.532-88.446c2.742-18.734,3.862-38.053,4.942-56.736c0.789-13.653,1.608-27.773,3.051-41.645
	c3.046-29.208,8.466-52.095,17.059-72.03l0.264-0.613c1.075-2.496,2.16-5.012,3.344-7.481c-0.736,0.066-1.52,0.077-2.329-0.007
	c-14.379,17.076-25.757,37.186-35.533,62.798c2.336,1.51,4.408,3.436,6.092,5.753c3.593,4.94,5.046,10.981,4.091,17.014
	c-1.768,11.183-11.255,19.3-22.562,19.3c-0.271,0-0.539-0.054-0.811-0.064c-1.354,5.492-2.697,11.429-4.069,17.993
	c3.474,1.615,6.506,4.081,8.822,7.265c3.59,4.94,5.044,10.983,4.089,17.017c-1.702,10.776-10.578,18.682-21.339,19.245
	c-1.352,6.927-3.043,15.245-4.992,23.671c8.037,4.57,12.842,13.773,11.317,23.432c-1.763,11.186-11.253,19.302-22.562,19.302
	c-0.494,0-0.999-0.085-1.498-0.117c-4.132,10.655-8.85,20.459-14.075,29.16c1.792,3.457,2.743,7.403,2.544,11.565
	c-0.579,12.21-10.605,21.775-22.823,21.775c-0.357,0-0.723-0.008-1.086-0.024c-1.681-0.08-3.331-0.179-4.97-0.289
	c-16.372,13.946-36.499,21.674-55.793,21.674c-3.329,0-6.624-0.264-9.879-0.729c-1.458,1.881-2.965,3.714-4.506,5.509
	C271.381,762.091,294.834,752.361,315.197,742.36z M522.37,406.547c-6.904,1.498-14.542,4.075-22.009,7.551
	c19.663,3.407,40.609,4.833,63.726,4.326c22.764-0.512,49.057-1.494,72.995-6.703c18.382-4.001,34.455-10.634,47.774-19.713
	c16.203-11.053,28.349-23.797,34.201-35.887c6.516-13.456,8.17-29.971,5.204-51.975c-0.91-6.735-2.16-13.592-3.371-20.223
	c-2.07-11.335-4.209-23.055-4.788-34.884c-0.236-4.834,0.118-8.967,1.005-12.507c-2.515,4.114-3.733,9.494-4.301,13.265
	c-1.902,12.602-2,25.552-0.301,39.594l0.52,4.179c1.536,12.157,3.123,24.725-0.179,37.34c-8.602,32.862-36.642,51.487-52.589,59.667
	c-27.613,14.163-57.286,14.488-85.979,14.8l-2.022,0.021c-8.775,0.099-17.553,0.168-26.33,0.24l-13.16,0.112
	c-2.931,0.026-5.885,0.057-8.848,0.107C523.467,406.182,522.947,406.422,522.37,406.547z M306.81,725.662
	c-11.425-1.538-22.508-4.422-35.044-10.031c-4.045,9.135-8.426,17.212-13.309,24.496
	C274.659,741.284,291.942,736.088,306.81,725.662z M513.099,846.556c-22.028,15.718-44.118,31.35-66.207,46.98l-4.086,2.891
	c-22.94,16.235-48.804,28.379-71.075,38.117c-22.65,9.903-45.467,17.971-67.821,23.975c-20.086,5.393-40.221,9.236-59.843,11.421
	c-17.283,1.928-34.497,2.601-51.188,2.008c-14.251-0.507-28.331-1.947-41.848-4.286c-11.039-1.915-21.745-4.43-31.817-7.476
	c-7.66-2.318-14.555-4.788-21.076-7.553c-2.899-1.23-6.311-2.731-9.604-4.51l-5.678-2.875c-2.439-1.156-4.737-2.392-6.92-3.688
	c19.192,3.148,39.316,4.72,60.069,4.72c60.58,0,126.384-13.248,189.137-38.778c70.624-28.733,140.709-73.257,220.565-140.117
	c128.696-107.758,245.562-238.592,329.26-368.562c2.017-0.546,3.939-1.272,5.71-1.954c9.628-3.707,18.123-5.865,28.264-4.404
	c9.794,1.416,19.313,5.521,27.528,11.869c13.76,10.629,23.623,25.978,27.058,42.109c8.066,37.898-14.299,80.533-68.37,130.342
	c-19.929,18.361-43.155,36.132-75.313,57.624c-14.854,9.933-29.934,19.193-44.817,27.528c-5.204,2.913-11.125,5.537-17.393,8.316
	c-9.62,4.265-19.569,8.676-27.109,14.379l-16.867,12.746c-1.366,1.032-2.756,2.084-4.129,3.12c-0.867,0.292-1.572,0.847-2.058,1.555
	c-18.389,13.895-37.218,28.144-55.681,42.357c-21.359,16.44-43.883,33.348-68.861,51.684
	C562.017,811.445,539.826,827.481,513.099,846.556z M883.809,449.294c13.992,11.825,30.787,20.389,48.571,24.766
	c0.57,0.141,1.14,0.208,1.703,0.208c3.19,0,6.089-2.166,6.885-5.403c0.937-3.806-1.388-7.65-5.194-8.587
	c-15.672-3.857-30.474-11.404-42.8-21.824c-3-2.532-7.473-2.154-10.002,0.838C880.441,442.286,880.817,446.764,883.809,449.294z
	 M862.077,481.491c11.358,17.028,29.376,29.136,49.434,33.22c0.477,0.097,0.954,0.144,1.424,0.144c3.303,0,6.261-2.319,6.947-5.682
	c0.782-3.84-1.697-7.587-5.538-8.37c-16.417-3.343-31.163-13.252-40.456-27.187c-2.176-3.263-6.587-4.139-9.843-1.966
	C860.785,473.824,859.903,478.231,862.077,481.491z M837.892,514.78c8.815,15.782,24.615,27.532,42.263,31.431
	c0.515,0.114,1.03,0.169,1.537,0.169c3.257,0,6.192-2.256,6.924-5.568c0.845-3.827-1.572-7.615-5.4-8.46
	c-13.752-3.039-26.064-12.194-32.933-24.492c-1.913-3.425-6.242-4.648-9.658-2.736C837.205,507.036,835.981,511.358,837.892,514.78z
	 M809.917,545.199c6.257,13.314,17.785,23.801,31.631,28.774c0.794,0.285,1.604,0.42,2.4,0.42c2.909,0,5.639-1.804,6.679-4.7
	c1.325-3.689-0.592-7.753-4.279-9.078c-10.172-3.653-18.988-11.673-23.583-21.453c-1.668-3.547-5.901-5.066-9.442-3.404
	C809.774,537.424,808.249,541.652,809.917,545.199z M784.977,575.88c2.779,10.358,11.207,19.04,21.479,22.117
	c0.679,0.204,1.366,0.301,2.039,0.301c3.054,0,5.876-1.987,6.796-5.062c1.125-3.755-1.006-7.71-4.76-8.835
	c-5.576-1.671-10.336-6.573-11.843-12.197c-1.013-3.785-4.899-6.033-8.693-5.017C786.209,568.203,783.963,572.094,784.977,575.88z
	 M992.635,719.215l-0.003-0.003c-9.103-6.039-19.836-11.989-30.451-10.527c-1.528,0.224-3.062-0.459-3.942-1.736
	c-0.88-1.28-0.96-2.945-0.208-4.305c0.773-1.398,1.635-2.819,2.505-4.254c0.899-1.483,1.814-2.987,2.63-4.486
	c-3.627,0.267-8.626,1.342-10.711,1.79c-1.128,0.243-2.126,0.459-2.921,0.605c-7.641,1.422-13.853,3.635-18.99,6.767
	c-10.263,6.255-18.211,20.004-13.157,31.31c5.945,13.288,25.378,15.195,33.457,15.395c13.427,0.363,26.741-1.184,39.6-4.521
	c9.957-2.582,18.748-6.497,28.08-11.349c-8.447-2.878-16.11-8.071-23.13-12.829L992.635,719.215z M873.143,656.989
	c-9.46-1.622-18.636-3.195-27.368-3.195c-7.001,0-13.723,1.011-20.086,3.817c-6.839,3.019-11.133,7.551-11.205,11.829
	c-0.064,3.71,3.001,7.247,8.631,9.965c12.69,6.116,28.939,6.828,44.584,1.95h-0.003c14.133-4.412,26.741-12.362,38.701-21.199
	C895.422,660.814,884.169,658.883,873.143,656.989z M173.235,921.02c0.373-0.259,0.784-0.472,1.247-0.599
	c12.314-3.361,22.274-14.224,25.634-26.589c-4.87,3.633-10.762,6.153-17.203,7.255c-11.045,1.886-21.972-0.704-29.966-7.113
	c-1.643-1.318-2.019-3.67-0.867-5.433c1.15-1.768,3.457-2.374,5.324-1.395c6.743,3.523,15.624-0.725,20.319-6.865
	c4.817-6.295,6.967-14.643,9.044-22.716l0.693-2.681c2.659-10.154,6.239-20.508,14.336-27.475c3.289-2.83,7.372-4.769,11.642-5.63
	c-6.761-2.809-14.504-3.321-21.364-0.902c-6.7,2.36-11.826,7.153-17.251,12.229c-5.02,4.694-10.21,9.548-16.931,12.658
	c-5.79,2.683-11.941,3.329-17.323,1.83c-6.444-1.798-11.584-6.833-13.093-12.832c-0.485-1.939-0.554-3.781-0.381-5.537
	c-12.056,5.829-24.067,12-35.453,18.945C72.255,859.993,50,876.757,50,901.647c0,5.022,0.933,9.835,2.689,14.395
	C89.577,924.026,130.655,925.573,173.235,921.02z M1059.088,614.424c-0.256,2.905,2.963,5.644,6.012,6.153
	c3.377,0.571,7.324-0.488,12.077-3.219c10.591-6.078,19.033-16.291,22.738-27.448c-1.776,0.843-3.865,2.043-5.012,2.705
	c-1.142,0.659-2.163,1.243-2.95,1.635l-24.015,12.034C1063.731,608.394,1059.392,611.01,1059.088,614.424z M759.548,750.957
	c20.3-6.833,40.92-14.584,56.467-27.315c-6.772,1.526-14.272,1.808-22.151,0.733c-10.906-1.48-21.284-5.15-31.323-8.698
	c-3.545-1.251-7.087-2.502-10.65-3.659c-11.003-3.569-25.258-7.181-38.723-3.998c-18.615,14.062-37.695,28.495-56.381,42.883
	c-21.409,16.48-43.982,33.422-69.01,51.797c-20.943,15.374-43.16,31.427-69.92,50.524c-3.913,2.793-7.845,5.558-11.761,8.346
	c46.796,27.337,107.246,30.325,155.572,7.324c10.554-5.022,20.825-11.311,30.758-17.395c10.279-6.294,20.804-12.741,31.942-17.993
	l-28.621-3.841c-6.327-0.848-12.85-2.118-17.022-7.372c-6.388-8.044-2.443-19.161,3.382-26.885
	C700.668,770.787,731.948,760.252,759.548,750.957z M135.424,832.767c0.789,3.142,3.742,5.929,7.345,6.932
	c3.51,0.979,7.657,0.491,11.682-1.371c5.526-2.558,10.018-6.759,14.776-11.207c5.804-5.428,11.805-11.042,20.126-13.973
	c16.134-5.684,35.297,0.883,44.547,15.283c1.179,1.832,0.715,4.267-1.054,5.54c-1.771,1.275-4.225,0.936-5.588-0.763
	c-2.136-2.665-5.212-3.467-7.415-3.67c-4.452-0.443-9.3,1.152-12.704,4.083c-6.399,5.502-9.431,14.469-11.754,23.338l-0.685,2.648
	c-2.283,8.866-4.644,18.035-10.471,25.65c-2.491,3.257-5.868,6.156-9.695,8.212c2.294,0.099,4.638-0.056,6.999-0.459
	c8.743-1.494,16.15-6.198,20.327-12.909c0.936-1.504,2.718-2.248,4.46-1.811c1.72,0.424,2.974,1.907,3.105,3.678
	c1.001,13.633-5.016,27.148-14.964,36.312c39.265-5.994,79.41-17.039,118.389-32.898c69.819-28.405,139.216-72.515,218.394-138.81
	c15.565-13.032,30.888-26.345,45.957-39.904c6.149-35.673,17.241-70.329,33.021-103.019l2.721-5.62
	c14.435-29.771,29.36-60.553,28.92-94.826c-0.024-1.878,1.232-3.531,3.046-4.014c1.814-0.475,3.723,0.333,4.636,1.976
	c11.456,20.692,17.739,44.55,18.118,68.282c14.357-19.06,24.085-43.982,28.333-72.825c4.478-30.39,2.782-61.71,1.139-91.999
	c-0.091-1.688,0.864-3.259,2.406-3.955c1.542-0.685,3.35-0.373,4.556,0.811c21.772,21.391,36.442,49.111,41.984,78.986
	c26.882-45.483,30.798-104.222,9.508-152.648c-0.685-1.555-0.336-3.374,0.875-4.566c1.214-1.192,3.035-1.51,4.58-0.808
	c23.719,10.858,43.392,29.36,55.859,52.09c-1.39-16.549-7.523-33.822-17.035-46.626c-22.462-23.191-40.738-49.192-54.584-77.739
	l-0.597-1.238c-2.392-4.953-4.652-9.634-8.074-13.243c-2.056-2.171-4.496-3.694-6.929-4.476c-0.199,0.234-0.42,0.453-0.677,0.643
	c-3.595,2.659-5.14,8.148-4.718,16.785c0.555,11.287,2.643,22.738,4.665,33.814c1.227,6.721,2.497,13.672,3.43,20.599
	c3.193,23.671,1.302,41.667-5.948,56.637c-8.287,17.123-24.674,30.707-36.959,39.087c-14.195,9.677-31.233,16.726-50.647,20.951
	c-24.65,5.361-51.41,6.367-74.555,6.889c-3.155,0.069-6.271,0.104-9.351,0.104c-23.853,0-45.516-2.13-65.955-6.457
	c-9.645,6.03-18.081,13.636-22.92,22.503c-2.395,4.388-2.955,9.106-1.496,12.626c1.536,3.705,5.654,6.377,9.733,6.145
	c4.011-0.2,7.906-3.251,9.063-7.095c0.571-1.888,2.438-3.161,4.348-2.969c1.968,0.157,3.558,1.67,3.817,3.627
	c1.963,14.875-5.694,28.288-12.464,36.919c-4.478,5.705-9.85,11.306-15.968,16.643l-0.509,0.445
	c-4.502,3.921-8.756,7.625-10.055,12.749c-0.627,2.475,0.088,5.633,1.736,7.676c0.709,0.875,1.894,1.902,3.497,1.854
	c2.827-0.099,5.073-3.478,5.193-6.433c0.085-2.144,1.779-3.875,3.918-4.011c2.195-0.205,4.043,1.371,4.398,3.483
	c4.385,26.013-1.608,53.325-16.134,75.228c5.785-2.715,10.807-7.153,13.976-12.624c0.955-1.659,2.91-2.459,4.756-1.936
	c1.84,0.515,3.099,2.214,3.057,4.123c-0.36,16.464-7.716,32.913-23.146,51.77c-3.494,4.27-7.191,8.468-10.765,12.525
	c-5.63,6.388-11.389,12.925-16.435,19.87l18.838-6.559c1.528-0.536,3.249-0.133,4.382,1.038c1.134,1.168,1.488,2.889,0.907,4.411
	c-9.957,26.098-27.194,49.3-49.852,67.098c-14.712,11.557-31.515,21.012-50.127,28.227c3.451-0.224,6.873-0.795,10.175-1.715
	c1.894-0.523,3.891,0.328,4.817,2.056c0.928,1.728,0.531,3.87-0.955,5.15c-19.59,16.905-44.614,26.901-70.456,28.149
	c-1.846,0.088-3.694,0.133-5.537,0.133c-23.983,0-47.692-7.492-67.306-21.364c-0.389-0.275-0.7-0.614-0.964-0.98
	c-16.974,12.648-35.585,22.605-53.073,31.111c-6.988,3.398-14.032,6.692-21.081,9.986c-3.202,1.496-6.426,3.007-9.655,4.529
	C135.627,827.634,134.792,830.247,135.424,832.767z M1010.967,372.29c-1.846,0.829-3.651,1.752-5.366,2.745
	c-6.431,3.71-17.646,11.936-20.535,25.359c-1.75,8.122,1.806,17.459,8.268,21.724c1.414,0.931,3.022,1.579,4.777,1.926h0.003
	c7.604,1.494,16.254-2.598,21.356-6.561c4.518-3.51,8.063-8.258,10.226-13.557c-2.168,0.037-4.275-0.341-6.268-1.176
	c-3.702-1.555-6.663-4.438-7.924-7.716c-1.027-2.67-0.926-5.452,0.291-8.042c2.32-4.94,6.393-8.46,9.663-11.293
	c4.828-4.171,10.063-6.769,15.187-9.172c-1.267-0.16-2.595-0.235-3.964-0.235C1027.914,366.292,1017.517,369.351,1010.967,372.29z
	 M891.484,385.019c5.7-1.183,11.835-1.649,18.629-0.663c6.722,0.973,13.312,3.065,19.532,6.127c0.009-1.889-0.601-4.069-1.803-6.271
	c-1.059-1.939-2.424-3.777-3.87-5.721c-1.315-1.768-2.672-3.595-3.87-5.606c-4.873-8.175-2.737-15.52,0.155-22.13
	C906.475,357.521,895.722,370.234,891.484,385.019z M981.353,568.386c20.092,1.158,36.402-16.179,43.04-32.79
	c7.247-18.134,8.135-39.682,8.047-58.371c-0.069-14.619,0.517-28.037,6.929-40.461c-25.115,9.409-46.75,21.896-67.294,38.731
	c-7.92,48.826-54.182,91.487-71.367,107.318c-10.435,9.612-21.755,19.058-34.713,28.926c28.531,12.695,60.843,16.647,91.593,11.093
	c26.13-4.724,50.932-16.278,71.464-33.076c-17.867,2.931-37.111-2.07-50.671-14.229c-1.296-1.163-1.718-3.019-1.048-4.625
	C978.003,569.295,979.577,568.293,981.353,568.386z M293.886,792.871c18.758-0.904,37.047-6.777,52.826-16.795
	c-5.486-0.064-10.965-0.878-16.174-2.435c-1.774-0.533-2.99-2.168-2.987-4.022c0.005-1.854,1.227-3.486,3.006-4.009
	c24.775-7.308,46.681-18.353,65.106-32.825c18.953-14.888,33.9-33.753,43.619-54.96l-21.513,7.492
	c-1.648,0.576-3.475,0.069-4.598-1.275c-1.115-1.339-1.286-3.233-0.424-4.75c6.583-11.586,15.419-21.617,23.965-31.315
	c3.523-4.003,7.169-8.14,10.57-12.296c9.813-11.994,16.07-22.786,19.097-33.1c-6.153,4.769-13.675,7.756-21.513,8.308
	c-1.702,0.109-3.275-0.787-4.033-2.291c-0.76-1.507-0.541-3.323,0.552-4.606c15.574-18.251,23.733-42.296,22.836-66.175
	c-1.859,1.166-3.966,1.867-6.177,1.947c-3.987,0.163-7.612-1.622-10.314-4.966c-3.299-4.089-4.612-9.975-3.337-14.998
	c1.942-7.663,7.641-12.626,12.672-17.009l0.504-0.44c5.724-4.993,10.73-10.207,14.885-15.502c3.873-4.94,8.095-11.648,9.981-19.145
	c-2.358,1.283-4.996,2.064-7.732,2.203c-7.62,0.328-14.971-4.262-17.894-11.306c-2.456-5.926-1.771-13.16,1.88-19.852
	c7.078-12.965,20.312-23.375,34.676-30.622c-0.613,0.1-1.232,0.182-1.843,0.291c-11.069,1.987-21.183,5.726-30.913,11.431
	c-8.298,4.868-11.898,13.229-16.067,22.908l-0.264,0.616c-8.258,19.15-13.48,41.277-16.435,69.635
	c-1.424,13.685-2.238,27.709-3.022,41.269c-1.091,18.86-2.222,38.362-5.014,57.451c-5.812,39.68-18.049,69.965-37.415,92.588
	c-18.564,21.687-43.731,35.652-63.583,45.398c-16.678,8.186-34.129,15.187-51.663,15.187c-8.184,0-16.383-1.554-24.532-5.197
	c-4.853,5.032-10.006,9.727-15.387,14.1C246.653,787.236,270.242,793.995,293.886,792.871z M364.038,619.292
	c1.765-7.69,3.308-15.256,4.572-21.705c-17.441-2.743-39.976-6.379-58.348-13.333c-1.388,6.367-2.912,12.914-4.614,19.818
	c0.129,0.062,0.264,0.109,0.393,0.173C317.129,609.791,337.727,615.133,364.038,619.292z M370.858,589.649l2.414,0.379
	c8.17,1.288,15.534-4.273,16.785-12.2c0.611-3.873-0.32-7.751-2.624-10.919c-2.304-3.169-5.705-5.252-9.575-5.862l-2.438-0.384
	c-17.278-2.718-43.382-6.823-58.03-14.149c-2.099-1.051-4.334-1.547-6.535-1.547c-5.388,0-10.581,2.974-13.146,8.108
	c-1.755,3.505-2.038,7.481-0.797,11.199s3.851,6.729,7.356,8.482C322.988,582.119,350.657,586.469,370.858,589.649z
	 M387.798,528.517c0.771,0.123,1.547,0.184,2.32,0.184c7.249,0,13.336-5.209,14.469-12.386c0.611-3.87-0.32-7.745-2.624-10.917
	c-2.307-3.169-5.708-5.252-9.578-5.862c-16.054-2.534-49.439-7.807-64.986-15.579c-2.067-1.035-4.302-1.558-6.548-1.558
	c-0.377,0-0.753,0.062-1.13,0.092c-0.452,0.172-0.937,0.276-1.449,0.276c-0.003,0-0.005,0-0.008,0c-0.115,0-0.223-0.025-0.336-0.035
	c-0.58,0.119-1.161,0.237-1.731,0.427c-3.718,1.24-6.729,3.851-8.482,7.356c-1.752,3.505-2.035,7.484-0.797,11.199
	c1.24,3.718,3.854,6.729,7.359,8.482C333.886,520.001,368.957,525.54,387.798,528.517z M376.686,552.567l0.631,0.1
	c1.286-6.119,2.548-11.712,3.818-16.913c-16.983-2.724-42.227-7.132-61.081-14.188c-0.281,2.977-0.556,5.958-0.87,8.914
	c-0.267,2.527-0.587,5.045-0.9,7.564c0.934,0.323,1.862,0.686,2.77,1.139C334.566,545.942,359.915,549.929,376.686,552.567z
	 M1149.369,328.946c-31.622,26.858-45.841,67.597-58.467,103.774l-20.516,58.795c-5.07,14.523-9.762,31.155-1.206,44.766
	c4.577,7.284,12.325,11.88,21.82,12.941c12.186,1.35,25.65-3.318,34.244-11.936c11.117-11.143,16.198-26.221,19.433-40.469
	c8.13,25.728,6.959,55.146-3.595,82.688c-12.352,32.241-35.986,57.8-64.842,70.131c-1.88,0.803-3.814,1.595-5.772,2.395
	c-14.408,5.894-30.742,12.576-35.609,28.36c-2.867,9.298-0.448,18.881,6.807,26.984c9.5,10.615,24.858,16.024,38.261,13.477
	c8.479-1.619,16.03-5.174,22.996-10.002c-32.609,38.111-80.666,63.004-130.916,66.061c-23.114,1.4-46.7-1.55-69.517-4.409
	c-10.999-1.376-22.375-2.803-33.625-3.737c-44.251-3.665-77.988,2.59-103.14,19.145c-1.686,1.11-2.312,3.286-1.472,5.121
	c0.835,1.84,2.891,2.803,4.833,2.246c24.442-6.86,53.042-2.79,77.519,10.53c-21.044,1.323-43.64,10.365-66.215,26.626
	c-11.53,8.306-22.359,17.747-32.83,26.874c-10.458,9.119-21.276,18.55-32.657,26.709c-72.412,51.903-176.435,53.497-249.592,4.495
	c11.178-7.913,22.344-15.844,33.508-23.777c27.737,17.04,60.346,25.742,92.794,25.742c25.453,0,50.799-5.345,73.577-16.184
	c10.943-5.209,21.401-11.613,31.515-17.806c14.227-8.714,28.939-17.723,44.737-23.127c1.798-0.613,2.937-2.384,2.753-4.276
	c-0.187-1.894-1.648-3.409-3.534-3.659l-43.822-5.878c-4.865-0.653-9.418-1.478-11.696-4.348
	c-3.486-4.387-0.291-11.824,3.507-16.857c17.035-22.599,45.747-32.267,73.513-41.619c29.254-9.847,59.195-21.604,75.745-47.185
	c1.144-1.768,0.76-4.115-0.888-5.428c-1.64-1.315-4.017-1.166-5.489,0.347c-7.945,8.167-21.612,11.832-36.562,9.799
	c-10.074-1.368-19.606-4.737-29.699-8.303c-3.609-1.275-7.22-2.55-10.85-3.729c-8.293-2.69-18.317-5.384-28.801-5.613l9.851-7.445
	c6.783-5.132,16.291-9.346,25.485-13.424c6.164-2.731,12.538-5.558,18.073-8.658c15.072-8.439,30.336-17.814,45.369-27.864
	c12.634-8.444,23.899-16.322,34.154-23.899c22.232,10.651,46.84,16.159,71.466,16.159c9.725,0,19.452-0.856,29.03-2.587
	c34.102-6.167,66.047-23.378,89.95-48.471c1.4-1.467,1.512-3.739,0.267-5.34c-1.245-1.603-3.475-2.054-5.241-1.056
	c-15.704,8.839-35.951,8.354-51.548-0.437c18.636-4.268,33.113-20.9,39.527-36.954c7.772-19.441,8.724-41.973,8.634-61.449
	c-0.085-17.817,0.757-32.492,12.157-45.689c1.203-1.39,1.331-3.411,0.315-4.945c-1.016-1.531-2.923-2.198-4.681-1.63
	c-28.505,9.259-52.621,21.867-75.24,39.275c0.215-6.427-0.255-12.927-1.646-19.464c-3.833-18.001-14.789-35.089-30.062-46.886
	c-1.393-1.077-2.83-2.077-4.286-3.039c1.302-4.361,0.587-9.496-2.158-14.525c-1.331-2.443-2.937-4.598-4.486-6.684
	c-1.246-1.678-2.424-3.259-3.409-4.91c-3.337-5.604-1.478-10.21,2.094-17.867c0.885-1.896,1.8-3.859,2.606-5.91
	c0.568-1.446,0.267-3.089-0.773-4.243c-1.043-1.155-2.651-1.624-4.142-1.198c-22.201,6.201-39.966,25.453-44.467,48.044
	c-1.616,0.55-3.212,1.121-4.769,1.72c-1.834,0.706-3.619,1.38-5.33,1.799c-0.436,0.014-0.863,0.108-1.272,0.257
	c-1.692,0.271-3.302,0.219-4.784-0.461c-1.075-0.491-1.95-1.273-2.714-2.224c6.472-12.66,15.498-23.526,23.534-32.51
	c10.711-11.968,20.367-20.633,30.387-27.269c9.975-6.609,20.841-11.856,32.435-15.672c-0.099,0.173-0.195,0.347-0.288,0.525
	c-2.587,4.881-4.87,13.283-3.774,20.204c1.718,10.829,10.138,20.823,20.479,24.301c12.837,4.315,26.136,0.739,35.036-3.019
	c6.9-2.915,13.341-6.729,19.569-10.418c3.174-1.878,6.455-3.819,9.711-5.588C1066.716,319.587,1110.559,315.919,1149.369,328.946z
	 M926.148,655.274c1.622-1.278,2.04-3.561,0.979-5.329c-1.062-1.766-3.262-2.47-5.164-1.64c-14.301,6.289-30.398,3.529-47.436,0.611
	c-17.494-3.006-35.58-6.108-52.146,1.2c-9.946,4.388-15.96,11.56-16.091,19.185c-0.069,4.105,1.56,11.837,13.267,17.481
	c8.215,3.963,17.678,5.966,27.531,5.966c7.583,0,15.395-1.184,23.05-3.574c0,0,0,0,0.003,0
	C891.605,682.477,909.958,668.024,926.148,655.274z M1030.72,727.939c-10.949-0.245-21.004-7.06-30.731-13.651l-1.163-0.787
	c-0.549-0.376-1.107-0.747-1.664-1.118c-8.319-5.518-17.937-10.97-28.283-11.965c1.579-2.664,3.083-5.42,4.094-8.34
	c0.621-1.792-0.069-3.779-1.67-4.798c-4.363-2.777-11.901-1.462-20.569,0.403c-1.046,0.224-1.966,0.424-2.699,0.56
	c-8.639,1.608-15.755,4.166-21.753,7.823c-13.52,8.242-23.343,26.074-16.374,41.653c7.564,16.915,28.768,19.942,40.733,20.244
	c1.278,0.029,2.555,0.045,3.833,0.045c12.88,0,25.656-1.619,38.029-4.828c14.376-3.731,26.173-9.89,40.101-17.555
	c1.622-0.893,2.443-2.766,2.003-4.566C1034.166,729.262,1032.571,727.982,1030.72,727.939z M1054.999,366.398
	c0.109-1.392-0.501-2.745-1.616-3.585c-12.16-9.18-34.495-3.062-45.771,2.003c-2.099,0.941-4.155,1.992-6.11,3.123
	c-13.13,7.575-21.812,18.489-24.447,30.731c-2.459,11.426,2.488,24.165,11.77,30.288c2.31,1.52,4.902,2.571,7.708,3.123
	c1.627,0.32,3.27,0.469,4.91,0.469c8.73-0.003,17.355-4.171,23.052-8.599c7.943-6.172,13.483-15.392,15.198-25.301
	c0.277-1.614-0.432-3.241-1.806-4.134c-1.374-0.893-3.15-0.883-4.507,0.029c-1.95,1.304-4.614,1.558-6.777,0.648
	c-1.611-0.677-2.995-1.923-3.449-3.102c-0.221-0.576-0.205-1.062,0.056-1.616c1.464-3.118,4.195-5.625,7.609-8.58
	c4.38-3.787,9.348-6.108,14.611-8.564c2.424-1.131,4.932-2.302,7.425-3.641C1054.084,369.031,1054.892,367.791,1054.999,366.398z
	 M1064.267,598.96c-6.228,3.121-12.68,7.313-13.341,14.741c-0.688,7.802,6.121,13.84,12.824,14.958
	c1.04,0.173,2.096,0.261,3.171,0.261c4.417,0,9.138-1.472,14.336-4.457c12.616-7.241,22.62-19.582,26.765-33.009
	c1.344-4.363,0.843-7.519-1.491-9.38c-4.075-3.265-10.261,0.299-15.718,3.441c-0.981,0.565-1.856,1.072-2.531,1.411L1064.267,598.96
	z M269.234,705.38c20.126,10.063,35.882,12.645,54.776,13.549c0.229,0.008,0.472,0.016,0.712,0.016
	c7.836,0,14.267-6.137,14.64-13.971c0.384-8.082-5.876-14.968-13.955-15.355c-16.19-0.771-27.293-2.603-43.051-10.482
	c-2.07-1.038-4.302-1.56-6.551-1.56c-1.56,0-3.126,0.253-4.649,0.76c-3.715,1.24-6.729,3.854-8.482,7.359
	C259.056,692.932,261.998,701.763,269.234,705.38z M358.264,656.381c8.111,1.254,15.528-4.275,16.779-12.202
	c1.262-7.994-4.211-15.52-12.202-16.782c-27.157-4.289-48.631-9.906-60.465-15.822c-2.099-1.051-4.337-1.55-6.54-1.55
	c-5.385,0-10.578,2.974-13.144,8.108c-1.752,3.505-2.035,7.481-0.797,11.199c1.24,3.718,3.854,6.729,7.359,8.482
	C304.115,645.249,327.333,651.495,358.264,656.381z M286.904,672.224c13.977,6.845,24.165,8.51,38.892,9.213
	c5.254,0.25,9.999,2.282,13.719,5.46c4.089-7.13,7.845-14.981,11.215-23.448c-23.815-4.043-42.931-8.973-57.08-14.701
	c-1.49,5.249-2.987,10.496-4.495,15.732C288.414,667.055,287.658,669.641,286.904,672.224z"/>
</svg>
